<?xml version="1.0" encoding="utf-8"?>
<!-- Generator: Adobe Illustrator 24.3.0, SVG Export Plug-In . SVG Version: 6.00 Build 0)  -->
<svg version="1.1" id="Layer_1" xmlns="http://www.w3.org/2000/svg" xmlns:xlink="http://www.w3.org/1999/xlink" x="0px" y="0px"
	 viewBox="0 0 177.4 51.4" style="enable-background:new 0 0 177.4 51.4;" xml:space="preserve">
<style type="text/css">
	.st0{fill:#FF7F00;}
	.st1{fill-rule:evenodd;clip-rule:evenodd;fill:#FFFFFF;}
</style>
<g id="Group_3" transform="translate(-0.377)">
	<path id="Path_8" class="st0" d="M92.6,2.8c-0.6-0.3-1.3-0.6-2-0.8c-0.8-0.3-1.7-0.5-2.6-0.6c-1-0.2-2-0.3-3-0.3
		c-1.8,0-3.7,0.3-5.4,0.9c-1.5,0.5-2.8,1.3-4,2.4c-1.1,1-1.9,2.2-2.4,3.6c-0.6,1.4-0.9,2.9-0.8,4.5c0,2.2,0.8,4.4,2.1,6.1
		c1.7,2,3.9,3.7,6.3,4.8c1,0.5,2,1,3,1.6c0.7,0.4,1.3,1,1.7,1.6c0.4,0.6,0.6,1.3,0.5,2c0,0.7-0.2,1.4-0.5,2c-0.4,0.6-1,1.1-1.7,1.3
		c-0.9,0.3-1.8,0.5-2.8,0.5c-2.3,0-4.6-0.5-6.8-1.6l0,0h-0.1L73.3,33c-5.2-1.3-7.4-5.3-9-8.9c0.1,5.4,3.2,11.1,7.3,13.4
		c-0.3,0.8-0.6,1.7-1,2.8c0.6,0.3,1.7-0.5,3.5-1.6c1,0.3,2,0.5,3,0.7c1.1,0.2,2.3,0.3,3.5,0.3c1.9,0,3.8-0.3,5.7-0.9
		c1.6-0.5,3-1.3,4.2-2.4c1.1-1,2-2.3,2.6-3.7c0.6-1.5,0.9-3.1,0.9-4.7c0-1.5-0.3-3-0.8-4.3c-0.6-1.4-1.5-2.6-2.6-3.7
		c-1.3-1.2-2.9-2.2-4.5-3c-1.2-0.5-2.3-1.1-3.4-1.8c-0.7-0.4-1.3-0.9-1.8-1.6c-0.4-0.5-0.6-1.2-0.5-1.8c0-0.6,0.2-1.2,0.5-1.7
		c0.4-0.6,0.9-1,1.5-1.2c0.8-0.3,1.7-0.5,2.6-0.5s1.7,0.1,2.6,0.3C88.3,8.8,89,9,89.7,9.3c0.5,0.2,1,0.4,1.5,0.7L92.6,2.8L92.6,2.8z
		 M63,24.6c-0.3,0.4-0.5,0.5-0.4,0.2c0.2-0.6,0.5-1.1,0.8-1.6s0.6-0.8,1-0.7c0.5,0.2,1,0.6,1.4,1.1c0.4,0.4,0.5,0.8,0.3,0.6
		s-1-0.9-1.6-0.9S63.3,24.1,63,24.6L63,24.6z M71.3,17.3c1.1-0.1,2,0.8,2.1,1.9s-0.8,2-1.9,2.1s-2-0.8-2.1-1.9v-0.1
		c0-0.2,0-0.4,0.1-0.6c0.1,0.2,0.4,0.4,0.6,0.4c0.4,0,0.7-0.4,0.7-0.8l0,0c0-0.4-0.2-0.7-0.6-0.7C70.6,17.4,71,17.3,71.3,17.3
		L71.3,17.3z M163.1,22.6c0-0.6,0.1-1.2,0.3-1.8c0.1-0.6,0.4-1.2,0.7-1.8c0.3-0.5,0.7-1,1.2-1.3c0.5-0.4,1.1-0.5,1.7-0.5
		c0.6,0,1.2,0.2,1.7,0.5s0.8,0.8,1.1,1.3c0.3,0.6,0.5,1.2,0.6,1.8c0.1,0.6,0.2,1.3,0.2,1.9L163.1,22.6z M175.5,32.2
		c-0.9,0.3-1.9,0.6-2.9,0.8c-1.1,0.2-2.2,0.3-3.3,0.3c-1,0-2.1-0.2-3-0.5s-1.6-0.9-2.2-1.6c-0.6-0.8-0.9-1.7-1-2.7h14.5
		c0.1-0.5,0.2-1.1,0.2-1.6c0-0.6,0-1.3,0-1.9c0-2-0.2-4.1-0.8-6c-0.4-1.5-1.1-3-2.1-4.3c-0.9-1.1-2-1.9-3.3-2.5s-2.8-0.8-4.2-0.8
		s-2.8,0.3-4.2,0.8c-1.2,0.5-2.4,1.2-3.3,2.1c-1,0.9-1.8,2-2.4,3.2c-0.7,1.3-1.2,2.6-1.5,4c-0.3,1.5-0.5,3-0.5,4.5
		c-0.1,2.5,0.4,5,1.5,7.3c0.9,2,2.4,3.6,4.3,4.7c2.1,1.1,4.5,1.7,6.8,1.7c1,0,2-0.1,3-0.2c1-0.1,1.9-0.3,2.9-0.5
		c0.9-0.2,1.7-0.5,2.6-0.8L175.5,32.2L175.5,32.2z M153.6,0h-8v39.1h8V0z M142.6,4.4c0-0.8-0.2-1.6-0.5-2.3
		c-0.3-0.6-0.8-1.2-1.4-1.5c-1.3-0.7-2.9-0.7-4.2,0c-0.6,0.4-1.1,0.9-1.4,1.5c-0.4,0.7-0.5,1.5-0.5,2.3s0.2,1.5,0.5,2.2
		c0.3,0.6,0.8,1.2,1.4,1.5c1.3,0.8,2.9,0.8,4.2,0c0.6-0.4,1.1-0.9,1.5-1.5C142.4,5.9,142.6,5.2,142.6,4.4L142.6,4.4z M142.5,11.8h-8
		v27.3h8V11.8z M131.5,22.5c0.1-2.1-0.3-4.2-0.9-6.2c-0.5-1.5-1.4-2.8-2.7-3.8c-1.2-0.9-2.7-1.3-4.2-1.3c-0.9,0-1.8,0.1-2.7,0.4
		c-0.7,0.3-1.4,0.6-2.1,1.1c-0.6,0.4-1.1,0.9-1.5,1.4c-0.4,0.4-0.7,0.8-1,1.3h-0.1c-0.5-1.2-1.3-2.3-2.4-3c-1.2-0.8-2.6-1.2-4-1.1
		c-1.6,0-3.1,0.4-4.4,1.3c-0.5,0.4-1.1,0.8-1.5,1.3c-0.4,0.4-0.8,0.9-1.1,1.3h-0.1l-0.4-3.4h-6.8c0,1.3,0.1,2.7,0.1,4.1
		s0.1,3,0.1,4.6v18.6h7.9V22.7c0-0.7,0.1-1.5,0.3-2.2c0.2-0.5,0.5-1,0.8-1.4c0.3-0.3,0.7-0.6,1.1-0.7c0.3-0.1,0.7-0.2,1-0.2
		c0.7,0,1.3,0.2,1.7,0.7c0.4,0.5,0.8,1.1,0.9,1.8c0.2,0.8,0.3,1.6,0.2,2.5v15.9h7.9V22.6c0-0.8,0.1-1.6,0.4-2.4
		c0.2-0.6,0.6-1.1,1.1-1.5s1.1-0.5,1.6-0.5c0.6,0,1.3,0.2,1.7,0.7c0.5,0.6,0.8,1.2,0.9,2c0.2,1,0.3,2,0.3,3v15.2h7.9L131.5,22.5z"/>
</g>
<path class="st1" d="M17.6,18.9c1.2-0.5,2.2-1.2,3.1-2.1c0.8-0.8,1.4-1.7,1.8-2.8c0.4-1,0.6-2.1,0.6-3.2c0-1.5-0.3-2.9-1-4.2
	c-0.6-1.2-1.5-2.3-2.7-3c-0.9-0.7-1.8-1.1-2.8-1.5c-1.1-0.3-2.2-0.6-3.3-0.7C12,1.3,10.7,1.2,9.4,1.2c-1.2,0-2.4,0-3.6,0.1
	S3.6,1.5,2.6,1.6S0.7,1.9,0,2v36.8c0.9,0.1,2,0.3,3.3,0.4s2.8,0.2,4.5,0.2c2,0,3.9-0.1,5.9-0.4c1.5-0.2,2.9-0.6,4.3-1.2
	c1.1-0.5,2.1-1.1,3-1.9c0.7-0.7,1.3-1.4,1.8-2.2s0.9-1.7,1.1-2.6c0.3-0.9,0.4-1.9,0.4-2.9c0-1.4-0.3-2.7-0.8-4
	C23,23,22.2,22,21.2,21.1s-2.3-1.5-3.6-1.9V18.9L17.6,18.9z M60.6,21.6l-0.8,0.5v13.4c0,1.4-0.1,2.8-0.3,4.2s-0.5,2.7-1,4
	s-1.3,2.4-2.2,3.4c-1.1,1.1-2.4,1.9-3.9,2.4c-1.9,0.6-3.9,0.9-5.9,0.9c-1,0-2-0.1-3-0.2c-0.9-0.1-1.9-0.3-2.8-0.6
	c-0.8-0.2-1.6-0.5-2.4-0.9l1.5-6.5c0.6,0.3,1.1,0.6,1.8,0.8c0.7,0.3,1.4,0.4,2.2,0.6c0.8,0.2,1.6,0.2,2.4,0.2c1.1,0,2.1-0.2,3-0.7
	s1.5-1.3,1.9-2.2c0.5-1.1,0.7-2.4,0.7-3.6v-1.5h-0.1c-0.4,0.6-0.9,1.2-1.5,1.6c-0.6,0.4-1.3,0.8-2,1s-1.5,0.4-2.3,0.3
	c-1.4,0-2.8-0.4-4.1-1.1c-1.2-0.7-2.3-1.7-3-2.9c-0.9-1.3-1.5-2.7-1.9-4.2c-0.4-1.7-0.7-3.4-0.6-5.1c0-2,0.3-4,0.8-5.9
	c0.5-1.6,1.2-3.2,2.2-4.5c0.9-1.2,2-2.2,3.3-2.9c1.2-0.7,2.6-1,4-1c2.5-0.1,4.8,1.3,5.9,3.5h0.1l0.4-3h6.9c0,0.7-0.1,1.5-0.1,2.3
	c0,0.2,0,0.5,0,0.8c-0.3-0.1-0.6-0.1-0.9,0c-1.2,0.3-1.7,2.2-1.2,4c0.2,0.8,0.6,1.5,1.1,2l0,0l0,0l0,0l0,0l0,0l0,0l0,0l0,0l0,0l0,0
	l0,0l0,0l0,0l0,0l0,0l0,0l0,0l0,0l0,0l0,0l0,0l0,0l0,0l0,0l0,0l0,0l0,0l0,0l0,0l0,0l0,0l0,0l0,0l0,0l0,0l0,0l0,0l0,0h0.1l0,0
	c0,0,0.1,0,0.1,0.1l0,0l0,0l0,0C60,21.5,60.3,21.6,60.6,21.6L60.6,21.6z M51.7,27.7v-5.3c0-0.9-0.1-1.7-0.5-2.5
	c-0.2-0.6-0.7-1.1-1.2-1.5c-0.5-0.3-1-0.5-1.6-0.5c-0.8,0-1.6,0.3-2.2,0.9c-0.7,0.7-1.2,1.6-1.4,2.6c-0.4,1.3-0.5,2.6-0.5,3.9
	s0.1,2.5,0.5,3.7c0.2,0.9,0.7,1.7,1.4,2.4c0.6,0.6,1.4,0.9,2.2,0.9c0.6,0,1.1-0.1,1.6-0.4c0.5-0.4,1-0.9,1.2-1.5
	C51.6,29.6,51.8,28.6,51.7,27.7L51.7,27.7z M34.5,4.3c0-0.8-0.2-1.6-0.5-2.3c-0.3-0.6-0.8-1.2-1.4-1.5c-1.3-0.7-2.9-0.7-4.2,0
	C27.8,0.9,27.3,1.4,27,2c-0.4,0.7-0.5,1.5-0.5,2.3s0.2,1.5,0.5,2.2c0.3,0.6,0.8,1.2,1.4,1.5c1.3,0.8,2.9,0.8,4.2,0
	c0.6-0.4,1.1-0.9,1.5-1.5C34.3,5.8,34.5,5.1,34.5,4.3z M34.4,11.7h-8V39h8V11.7z M7.9,16.5V7.8c0.3-0.1,0.7-0.1,1-0.2
	c0.4,0,0.9-0.1,1.5-0.1c0.8,0,1.6,0.1,2.4,0.5c0.7,0.3,1.3,0.8,1.6,1.4c0.4,0.7,0.6,1.6,0.6,2.5c0,0.8-0.2,1.7-0.6,2.4
	c-0.4,0.7-1.1,1.3-1.8,1.6c-0.9,0.4-1.9,0.6-2.9,0.6H7.9z M7.9,22.6h2c0.7,0,1.5,0.1,2.2,0.3c0.7,0.2,1.3,0.5,1.9,0.9
	c0.6,0.4,1,0.9,1.3,1.6c0.4,0.7,0.5,1.6,0.5,2.4s-0.1,1.6-0.5,2.3c-0.3,0.6-0.7,1.2-1.3,1.6c-0.5,0.4-1.2,0.7-1.8,0.9
	s-1.3,0.3-2,0.3c-0.5,0-0.9,0-1.3,0c-0.3,0-0.7-0.1-1-0.1C7.9,32.8,7.9,22.6,7.9,22.6z M73.9,48.8l0.7,2.3h2.2l-3-8.6h-2.7l-2.9,8.6
	h2.1l0.7-2.3C71,48.8,73.9,48.8,73.9,48.8z M71.4,47.4l0.6-1.8c0.1-0.3,0.1-0.5,0.2-0.8s0.1-0.5,0.2-0.8l0,0
	c0.1,0.2,0.2,0.5,0.2,0.8s0.2,0.5,0.2,0.8l0.6,1.8H71.4z M96.9,46.2h-3.5v1.6h1.5v1.7c-0.1,0-0.2,0.1-0.3,0.1c-0.1,0-0.3,0-0.4,0.1
	c-0.2,0-0.3,0-0.5,0c-0.4,0-0.9-0.1-1.3-0.2c-0.4-0.1-0.7-0.3-1-0.6c-0.3-0.2-0.5-0.6-0.6-0.9c-0.2-0.4-0.2-0.8-0.2-1.2
	s0.1-0.8,0.2-1.2c0.1-0.3,0.4-0.6,0.7-0.8c0.3-0.2,0.6-0.4,1-0.5s0.8-0.2,1.2-0.2c0.3,0,0.7,0,1,0.1c0.5,0,0.9,0.2,1.3,0.4l0.6-1.7
	c-0.2-0.1-0.4-0.2-0.6-0.2c-0.3-0.1-0.6-0.1-0.9-0.2c-0.4,0-0.8-0.1-1.2-0.1c-0.7,0-1.5,0.1-2.2,0.3c-0.6,0.2-1.2,0.5-1.7,0.9
	s-0.8,0.9-1.1,1.4c-0.4,0.9-0.5,2-0.2,3c0.1,0.4,0.2,0.7,0.4,1c0.2,0.3,0.4,0.6,0.7,0.9c0.5,0.4,1,0.7,1.6,0.9
	c0.7,0.2,1.5,0.3,2.3,0.3c0.4,0,0.8,0,1.3-0.1c0.4-0.1,0.7-0.1,1.1-0.2c0.3-0.1,0.6-0.2,0.8-0.2L96.9,46.2L96.9,46.2z M115.3,45.9
	h-3.5v-1.7h3.8v-1.6h-5.8v8.6h6v-1.6h-4v-1.9h3.5V45.9L115.3,45.9z M130.2,51.1v-2.8c0-0.6,0-1.3,0-1.9s0-1.2-0.1-1.8h0.1
	c0.2,0.4,0.3,0.7,0.5,1.1s0.4,0.7,0.6,1.1s0.4,0.7,0.6,1l2,3.3h2.2v-8.6h-1.9v2.7c0,0.4,0,0.8,0,1.2s0,0.8,0,1.1s0.1,0.8,0.1,1.2
	l0,0c-0.2-0.5-0.5-1-0.7-1.6s-0.5-1-0.8-1.5l-1.9-3.1h-2.5v8.6H130.2z M155.8,49.3c-0.2,0.1-0.4,0.1-0.5,0.2
	c-0.2,0.1-0.4,0.1-0.7,0.1c-0.2,0-0.5,0-0.7,0c-0.4,0-0.9-0.1-1.3-0.2c-0.4-0.1-0.7-0.3-1-0.6c-0.3-0.2-0.5-0.5-0.6-0.9
	s-0.2-0.7-0.2-1.1c0-0.4,0.1-0.8,0.2-1.2c0.1-0.3,0.4-0.6,0.6-0.9c0.3-0.2,0.6-0.4,1-0.5s0.8-0.2,1.2-0.2s0.7,0,1.1,0.1
	c0.3,0.1,0.6,0.1,0.8,0.3l0.4-1.6c-0.2-0.1-0.4-0.2-0.5-0.2c-0.3-0.1-0.5-0.1-0.8-0.2c-0.3,0-0.7-0.1-1.1-0.1
	c-0.6,0-1.1,0.1-1.6,0.2c-0.5,0.1-1,0.3-1.4,0.6s-0.8,0.6-1.1,0.9c-0.3,0.4-0.5,0.8-0.7,1.3s-0.3,1-0.3,1.6s0.1,1.2,0.3,1.7
	s0.5,1,0.9,1.4s1,0.7,1.5,0.9c0.7,0.2,1.4,0.3,2.1,0.3c0.4,0,0.7,0,1.1-0.1c0.3,0,0.6-0.1,0.9-0.2c0.2,0,0.4-0.1,0.6-0.2L155.8,49.3
	L155.8,49.3z M173,51.1v-3.7l3.1-4.9h-2.3l-1,2.1c-0.1,0.2-0.2,0.4-0.3,0.6s-0.2,0.3-0.2,0.5s-0.2,0.3-0.2,0.5l0,0
	c-0.1-0.2-0.1-0.3-0.2-0.5l-0.2-0.5c-0.1-0.2-0.2-0.4-0.3-0.6l-1-2.1H168l3,5v3.6L173,51.1z"/>
</svg>
