<svg xmlns="http://www.w3.org/2000/svg" width="437.495" height="369.802" viewBox="0 0 437.495 369.802">
  <g id="Icones" transform="translate(-867.378 -241.771)">
    <g id="_20" data-name="20" transform="translate(-58.926 -42.689)" opacity="0.2">
      <g id="icon-html5" transform="translate(962.921 541.24) rotate(-19)" opacity="0.998">
        <path id="Path_1" data-name="Path 1" d="M5.693,0V2.211h-1.9V0H1.711V6.694h2.08V4.454h1.9v2.24h2.08V0Z" transform="translate(1.33 0)" fill="#ff7300"/>
        <path id="Path_2" data-name="Path 2" d="M5.629,0V2.22H7.462V6.694h2.08V2.22h1.831V0Z" transform="translate(4.377 0)" fill="#ff7300"/>
        <path id="Path_3" data-name="Path 3" d="M14.209,0,12.876,2.353,11.543,0H9.372V6.694h2.035V3.377l1.433,2.38h.036l1.431-2.38V6.694h2.071V0Z" transform="translate(7.287 0)" fill="#ff7300"/>
        <path id="Path_4" data-name="Path 4" d="M13.9,0V6.694h5V4.482H15.977V0Z" transform="translate(10.804 0)" fill="#ff7300"/>
        <path id="Path_5" data-name="Path 5" d="M6.18,14.008l-.1-1.182h20.5l-.1,1.182L26.3,16.241l-.084.99H10.555l.375,4.508H25.844l-.1,1.182-.962,11.593-.06.743-8.379,2.5-.018.005-8.383-2.5-.574-6.913h4.11l.29,3.512,4.557,1.322.018-.005,4.552-1.321.475-5.709H7.186ZM0,5.489l2.975,35.9,13.349,3.989L29.71,41.383,32.689,5.489Z" transform="translate(0 4.268)" fill="#ff7300"/>
      </g>
      <g id="icon-twitter" transform="translate(1252.2 588.181) rotate(20)" opacity="0.998">
        <path id="Path_8" data-name="Path 8" d="M49.769,4.931a19.923,19.923,0,0,1-5.864,1.657A10.5,10.5,0,0,0,48.393.768,20.061,20.061,0,0,1,41.911,3.32,10.062,10.062,0,0,0,34.456,0a10.367,10.367,0,0,0-10.21,10.516,10.858,10.858,0,0,0,.265,2.4A28.726,28.726,0,0,1,3.464,1.925,10.716,10.716,0,0,0,2.081,7.211a10.6,10.6,0,0,0,4.543,8.754A9.956,9.956,0,0,1,2,14.65v.133A10.449,10.449,0,0,0,10.19,25.094a9.935,9.935,0,0,1-4.611.181,10.261,10.261,0,0,0,9.538,7.3A20.121,20.121,0,0,1,0,36.934a28.29,28.29,0,0,0,15.652,4.725c18.781,0,29.051-16.026,29.051-29.924,0-.455-.009-.908-.03-1.36a21.068,21.068,0,0,0,5.1-5.444" transform="translate(0 0)" fill="#ff7300"/>
      </g>
      <g id="icon-instagram" transform="matrix(0.921, -0.391, 0.391, 0.921, 1125.97, 402.817)" opacity="0.998">
        <path id="Path_9" data-name="Path 9" d="M24.885,4.485c6.644,0,7.432.025,10.055.144a13.849,13.849,0,0,1,4.621.857,7.7,7.7,0,0,1,2.86,1.863,7.689,7.689,0,0,1,1.861,2.86,13.79,13.79,0,0,1,.859,4.621c.119,2.624.144,3.411.144,10.055s-.025,7.432-.144,10.055a13.779,13.779,0,0,1-.859,4.621,8.238,8.238,0,0,1-4.721,4.723,13.756,13.756,0,0,1-4.621.857c-2.624.121-3.411.146-10.055.146s-7.432-.025-10.055-.146a13.746,13.746,0,0,1-4.621-.857,7.717,7.717,0,0,1-2.862-1.861,7.717,7.717,0,0,1-1.861-2.862,13.743,13.743,0,0,1-.857-4.62c-.121-2.625-.146-3.413-.146-10.057s.025-7.432.146-10.055a13.756,13.756,0,0,1,.857-4.621,7.711,7.711,0,0,1,1.861-2.86,7.722,7.722,0,0,1,2.862-1.863,13.836,13.836,0,0,1,4.62-.857c2.625-.119,3.413-.144,10.057-.144m0-4.485c-6.758,0-7.606.028-10.26.149A18.318,18.318,0,0,0,8.583,1.306,12.212,12.212,0,0,0,4.177,4.177,12.157,12.157,0,0,0,1.306,8.585a18.26,18.26,0,0,0-1.157,6.04C.028,17.279,0,18.127,0,24.885s.028,7.606.149,10.26a18.272,18.272,0,0,0,1.157,6.042,12.186,12.186,0,0,0,2.871,4.408,12.183,12.183,0,0,0,4.406,2.869,18.272,18.272,0,0,0,6.042,1.157c2.654.121,3.5.149,10.26.149s7.606-.028,10.26-.149a18.26,18.26,0,0,0,6.04-1.157,12.717,12.717,0,0,0,7.279-7.277,18.272,18.272,0,0,0,1.157-6.042c.121-2.654.149-3.5.149-10.26s-.028-7.606-.149-10.26a18.26,18.26,0,0,0-1.157-6.04,12.2,12.2,0,0,0-2.871-4.408,12.2,12.2,0,0,0-4.408-2.871A18.306,18.306,0,0,0,35.144.149C32.49.028,31.642,0,24.885,0m0,12.106A12.778,12.778,0,1,0,37.663,24.885,12.778,12.778,0,0,0,24.885,12.106m0,21.074a8.295,8.295,0,1,1,8.3-8.3,8.3,8.3,0,0,1-8.3,8.3M41.154,11.6a2.986,2.986,0,1,1-2.986-2.986A2.986,2.986,0,0,1,41.154,11.6" transform="translate(0)" fill="#ff7300"/>
      </g>
      <g id="icon-linkedin" transform="translate(1313.882 364.169) rotate(22)" opacity="0.998">
        <path id="Path_12" data-name="Path 12" d="M33.655,34.308V19.725c0-7.167-1.543-12.641-9.9-12.641a8.642,8.642,0,0,0-7.814,4.28h-.1V7.731H7.924V34.308h8.262V21.119c0-3.484.647-6.818,4.927-6.818,4.23,0,4.28,3.932,4.28,7.017v12.94h8.262Z" transform="translate(6.161 5.508)" fill="#ff7300"/>
        <rect id="Rectangle_9" data-name="Rectangle 9" width="8.262" height="26.577" transform="translate(0.647 13.239)" fill="#ff7300"/>
        <path id="Path_13" data-name="Path 13" d="M4.778,0A4.8,4.8,0,1,0,9.556,4.778,4.779,4.779,0,0,0,4.778,0" fill="#ff7300"/>
      </g>
      <g id="icon-facebook" transform="matrix(0.921, -0.391, 0.391, 0.921, 926.304, 305.558)" opacity="0.998">
        <path id="Path_10" data-name="Path 10" d="M16.776,49.769v-22.7h7.616l1.143-8.85H16.776V12.57c0-2.561.707-4.307,4.385-4.307l4.682,0V.347A63.543,63.543,0,0,0,19.019,0C12.265,0,7.64,4.124,7.64,11.694v6.525H0v8.85H7.64v22.7Z" fill="#ff7300"/>
      </g>
    </g>
    <g id="_10" data-name="10" transform="translate(0 -46)" opacity="0.1">
      <g id="icon-youtube" transform="translate(957.163 410.664) rotate(20)">
        <path id="Path_6" data-name="Path 6" d="M29.428,3.307A3.787,3.787,0,0,0,26.764.638C24.43,0,15.031,0,15.031,0S5.632.019,3.3.658A3.784,3.784,0,0,0,.634,3.326C-.073,7.483-.347,13.819.652,17.81a3.788,3.788,0,0,0,2.663,2.669c2.335.638,11.735.638,11.735.638s9.4,0,11.733-.638a3.787,3.787,0,0,0,2.664-2.669c.745-4.164.974-10.495-.019-14.5M12.039,15.084V6.034l7.8,4.525Z" transform="translate(0)" fill="#ff7300"/>
      </g>
      <g id="icon-facebook-2" data-name="icon-facebook" transform="translate(1020.748 624.228) rotate(17)">
        <path id="Path_10-2" data-name="Path 10" d="M10.143,30.093V16.367h4.605l.691-5.351h-5.3V7.6c0-1.549.428-2.6,2.651-2.6h2.831V.21A38.421,38.421,0,0,0,11.5,0c-4.084,0-6.88,2.493-6.88,7.071v3.945H0v5.351H4.619V30.093Z" fill="#ff7300"/>
      </g>
      <g id="icon-image" transform="translate(1278.813 512.129) rotate(30)">
        <path id="Path_7" data-name="Path 7" d="M26.69,0H3.4A3.451,3.451,0,0,0,0,3.493v21.95a3.449,3.449,0,0,0,3.4,3.489H26.69a3.447,3.447,0,0,0,3.4-3.489V3.493A3.449,3.449,0,0,0,26.69,0M19.459,5.194a3.373,3.373,0,1,1-3.288,3.371,3.331,3.331,0,0,1,3.288-3.371m6.164,20.511H4.939c-.908,0-1.312-.674-.9-1.5L9.678,12.74a.941.941,0,0,1,1.74-.167l5.672,7.6a1.37,1.37,0,0,0,2.155.14l1.387-1.441a1.3,1.3,0,0,1,2.1.183l3.594,5.265c.519.763.206,1.382-.7,1.382" fill="#ff7300"/>
      </g>
    </g>
    <g id="_30" data-name="30" transform="translate(3 -22)" opacity="0.3">
      <g id="icon-html5-2" data-name="icon-html5" transform="translate(1047.525 266.753) rotate(16)">
        <path id="Path_1-2" data-name="Path 1" d="M3.671,0V1.088H2.735V0H1.711v3.3H2.735v-1.1h.936v1.1H4.695V0Z" transform="translate(-0.214 0)" fill="#ff7300"/>
        <path id="Path_2-2" data-name="Path 2" d="M5.629,0V1.092h.9v2.2H7.555v-2.2h.9V0Z" transform="translate(-0.704 0)" fill="#ff7300"/>
        <path id="Path_3-2" data-name="Path 3" d="M11.753,0,11.1,1.158,10.441,0H9.372v3.3h1V1.662l.705,1.172H11.1l.7-1.172V3.295h1.019V0Z" transform="translate(-1.172 0)" fill="#ff7300"/>
        <path id="Path_4-2" data-name="Path 4" d="M13.9,0v3.3H16.36V2.206H14.921V0Z" transform="translate(-1.737 0)" fill="#ff7300"/>
        <path id="Path_5-2" data-name="Path 5" d="M3.042,9.683,2.994,9.1h10.09l-.047.582-.092,1.1-.041.487H5.2l.185,2.219h7.342l-.05.582L12.2,19.777l-.03.366-4.125,1.23-.009,0L3.909,20.142l-.283-3.4H5.65l.143,1.729,2.243.651.009,0,2.241-.65.234-2.81H3.538ZM0,5.489,1.465,23.161l6.571,1.963,6.589-1.966L16.092,5.489Z" transform="translate(0 -0.686)" fill="#ff7300"/>
      </g>
      <g id="icon-image-2" data-name="icon-image" transform="translate(1153.97 465) rotate(21)">
        <path id="Path_7-2" data-name="Path 7" d="M21.729,0H2.771A2.81,2.81,0,0,0,0,2.844V20.714a2.808,2.808,0,0,0,2.771,2.84H21.729a2.806,2.806,0,0,0,2.769-2.84V2.844A2.808,2.808,0,0,0,21.729,0M15.842,4.229a2.746,2.746,0,1,1-2.677,2.745,2.712,2.712,0,0,1,2.677-2.745m5.018,16.7H4.021c-.739,0-1.068-.549-.734-1.225l4.592-9.331A.766.766,0,0,1,9.3,10.236l4.618,6.19a1.115,1.115,0,0,0,1.754.114l1.13-1.173a1.06,1.06,0,0,1,1.708.149L21.432,19.8c.423.621.168,1.125-.571,1.125" fill="#ff7300"/>
      </g>
      <g id="icon-snapchat" transform="translate(1040.789 504.149) rotate(-20)">
        <path id="Path_11" data-name="Path 11" d="M24.019,17.152c-3.275-.539-4.751-3.894-4.812-4.036a.2.2,0,0,0-.013-.028,1.012,1.012,0,0,1-.115-.833c.179-.419.865-.637,1.319-.78.132-.041.255-.081.359-.122a2.773,2.773,0,0,0,.976-.583.932.932,0,0,0,.3-.668,1.052,1.052,0,0,0-.787-.912,1.426,1.426,0,0,0-.533-.1,1.19,1.19,0,0,0-.5.1,2.782,2.782,0,0,1-1.021.291.935.935,0,0,1-.339-.073c.01-.153.018-.311.029-.473l.005-.07c.1-1.659.235-3.721-.312-4.946a6.651,6.651,0,0,0-1.5-2.145A6.271,6.271,0,0,0,15.283.591,7.091,7.091,0,0,0,12.485,0h-.061L12,.005A7.113,7.113,0,0,0,9.2.6,6.208,6.208,0,0,0,7.415,1.777a6.675,6.675,0,0,0-1.493,2.14C5.374,5.14,5.5,7.2,5.609,8.86v0c.01.178.023.363.033.543a.981.981,0,0,1-.4.075A2.658,2.658,0,0,1,4.149,9.19.977.977,0,0,0,3.734,9.1a1.472,1.472,0,0,0-.734.2,1.018,1.018,0,0,0-.519.663.915.915,0,0,0,.349.859,3.007,3.007,0,0,0,.913.521c.1.042.228.08.359.122.453.143,1.141.361,1.319.78a1.016,1.016,0,0,1-.116.833c0,.01-.009.018-.012.028a8.1,8.1,0,0,1-1.234,1.907,6.927,6.927,0,0,1-1.488,1.314,5.467,5.467,0,0,1-2.09.813.573.573,0,0,0-.479.6A.726.726,0,0,0,.06,18v0a1.534,1.534,0,0,0,.83.709,9.473,9.473,0,0,0,2.4.623,2.97,2.97,0,0,1,.147.527c.039.184.08.374.141.575a.627.627,0,0,0,.656.478,3.222,3.222,0,0,0,.564-.078,6.325,6.325,0,0,1,1.284-.146A5.537,5.537,0,0,1,7,20.765a4.359,4.359,0,0,1,1.717.886A5.557,5.557,0,0,0,12.1,22.97c.042,0,.083,0,.124-.005s.112.005.176.005a5.567,5.567,0,0,0,3.384-1.317l0,0a4.386,4.386,0,0,1,1.717-.885,5.631,5.631,0,0,1,.919-.078,6.4,6.4,0,0,1,1.284.136,3.129,3.129,0,0,0,.563.068H20.3a.62.62,0,0,0,.629-.47c.058-.2.1-.381.141-.57a3.023,3.023,0,0,1,.145-.523,9.516,9.516,0,0,0,2.4-.624A1.537,1.537,0,0,0,24.437,18a.729.729,0,0,0,.061-.253.57.57,0,0,0-.479-.594" transform="translate(0)" fill="#ff7300"/>
      </g>
      <g id="icon-instagram-2" data-name="icon-instagram" transform="matrix(0.839, -0.545, 0.545, 0.839, 1227.865, 277.115)">
        <path id="Path_9-2" data-name="Path 9" d="M12.25,2.208c3.271,0,3.658.012,4.95.071a6.817,6.817,0,0,1,2.275.422,3.791,3.791,0,0,1,1.408.917A3.785,3.785,0,0,1,21.8,5.025,6.788,6.788,0,0,1,22.221,7.3c.059,1.291.071,1.679.071,4.95s-.012,3.658-.071,4.95a6.783,6.783,0,0,1-.423,2.275A4.055,4.055,0,0,1,19.474,21.8a6.772,6.772,0,0,1-2.275.422c-1.291.059-1.679.072-4.95.072s-3.658-.012-4.95-.072A6.767,6.767,0,0,1,5.025,21.8a3.8,3.8,0,0,1-1.409-.916A3.8,3.8,0,0,1,2.7,19.474,6.765,6.765,0,0,1,2.278,17.2c-.059-1.292-.072-1.68-.072-4.951s.012-3.658.072-4.95A6.772,6.772,0,0,1,2.7,5.025a3.8,3.8,0,0,1,.916-1.408A3.8,3.8,0,0,1,5.025,2.7,6.811,6.811,0,0,1,7.3,2.278c1.292-.059,1.68-.071,4.951-.071M12.25,0C8.923,0,8.506.014,7.2.073a9.017,9.017,0,0,0-2.974.57A6.011,6.011,0,0,0,2.056,2.056,5.984,5.984,0,0,0,.643,4.226,8.989,8.989,0,0,0,.073,7.2C.014,8.506,0,8.923,0,12.25s.014,3.744.073,5.05a8.994,8.994,0,0,0,.57,2.974,6,6,0,0,0,1.413,2.17,6,6,0,0,0,2.169,1.412,8.995,8.995,0,0,0,2.974.57c1.306.059,1.724.073,5.05.073s3.744-.014,5.05-.073a8.989,8.989,0,0,0,2.973-.57,6.26,6.26,0,0,0,3.583-3.582,8.995,8.995,0,0,0,.57-2.974c.059-1.306.073-1.724.073-5.05s-.014-3.744-.073-5.05a8.989,8.989,0,0,0-.57-2.973,6.007,6.007,0,0,0-1.413-2.17A6.007,6.007,0,0,0,20.273.643,9.011,9.011,0,0,0,17.3.073C15.994.014,15.576,0,12.25,0m0,5.959a6.29,6.29,0,1,0,6.29,6.29,6.29,6.29,0,0,0-6.29-6.29m0,10.374a4.083,4.083,0,1,1,4.084-4.084,4.084,4.084,0,0,1-4.084,4.084M20.258,5.711a1.47,1.47,0,1,1-1.47-1.47,1.47,1.47,0,0,1,1.47,1.47" transform="translate(0)" fill="#ff7300"/>
      </g>
    </g>
  </g>
</svg>
