<svg id="Group_44" data-name="Group 44" xmlns="http://www.w3.org/2000/svg" xmlns:xlink="http://www.w3.org/1999/xlink" width="241.224" height="45" viewBox="0 0 241.224 45">
  <defs>
    <clipPath id="clip-path">
      <rect id="Rectangle_251" data-name="Rectangle 251" width="241.224" height="45" fill="none"/>
    </clipPath>
  </defs>
  <path id="Path_34" data-name="Path 34" d="M439.781,92.586h14.641v4.359h-9.546v4.788h9.208v4.113h-9.208v8.226h-5.1Z" transform="translate(-378.423 -79.668)" fill="#3d464d"/>
  <g id="Group_45" data-name="Group 45">
    <g id="Group_44-2" data-name="Group 44" clip-path="url(#clip-path)">
      <path id="Path_35" data-name="Path 35" d="M561,100.679c0-6.415,5.1-11.173,11.572-11.173s11.572,4.758,11.572,11.173-5.1,11.173-11.572,11.173S561,107.094,561,100.679m18.171,0a6.6,6.6,0,1,0-6.6,6.63,6.29,6.29,0,0,0,6.6-6.63" transform="translate(-482.729 -77.018)" fill="#3d464d"/>
      <path id="Path_36" data-name="Path 36" d="M730.327,102.469l-6.078-9.883h5.586L733,98.111l3.192-5.525h5.525l-6.047,9.883,7,11.6h-5.525L733,107.012l-4.113,7.06h-5.525Z" transform="translate(-622.437 -79.668)" fill="#3d464d"/>
      <path id="Path_37" data-name="Path 37" d="M878.458,92.585h7.888c4.727,0,7.367,2.21,7.367,5.494a5.08,5.08,0,0,1-3.223,4.7,5.411,5.411,0,0,1,4.236,5.218c0,3.9-3.223,6.077-7.121,6.077h-9.147Zm7.735,8.41c2.149,0,2.609-1.013,2.609-2.149s-.43-2.148-2.609-2.148h-2.64V101Zm.982,8.717a2.307,2.307,0,1,0,0-4.6h-3.622v4.6Z" transform="translate(-755.897 -79.668)" fill="#ff7300"/>
      <path id="Path_38" data-name="Path 38" d="M1009.036,92.586h1.535l9.577,21.486h-4.85l-1.5-3.407h-7.98l-1.5,3.407h-4.85Zm3.008,13.9-2.241-5.341-2.241,5.341Z" transform="translate(-860.016 -79.669)" fill="#ff7300"/>
      <path id="Path_39" data-name="Path 39" d="M1164.459,92.586h2.179l11.418,11.848V92.586h5.1v21.486h-2.179l-11.418-11.787v11.787h-5.1Z" transform="translate(-1001.995 -79.668)" fill="#ff7300"/>
      <path id="Path_40" data-name="Path 40" d="M1324.836,92.586h2.179l11.418,11.848V92.586h5.1v21.486h-2.179l-11.418-11.787v11.787h-5.1Z" transform="translate(-1139.997 -79.668)" fill="#ff7300"/>
      <path id="Path_41" data-name="Path 41" d="M1485.214,92.586h14.365v4.359h-9.27v4.082h8.932v4.052h-8.932v4.635h9.392v4.359h-14.488Z" transform="translate(-1277.999 -79.668)" fill="#ff7300"/>
      <path id="Path_42" data-name="Path 42" d="M1610.173,92.586h7.428c4.174,0,7.244,2.271,7.244,6.384a5.912,5.912,0,0,1-3.929,5.617l5.832,9.485h-5.586L1616,105.355h-.737v8.717h-5.1ZM1617.2,101c1.934,0,2.67-.706,2.67-2.026s-.737-2.026-2.67-2.026h-1.934V101Z" transform="translate(-1385.524 -79.669)" fill="#ff7300"/>
      <path id="Path_43" data-name="Path 43" d="M4.525,132.83.043,141.508A.376.376,0,0,0,.177,142L22.2,155.882l2.69-2.691Z" transform="translate(0 -114.298)" fill="#ffb680"/>
      <path id="Path_44" data-name="Path 44" d="M36.92.371l-.334,16.906,20.05,20.051V9.2a.375.375,0,0,0-.113-.269.387.387,0,0,0-.274-.109l-6.239.087a.9.9,0,0,1-.52-.165L37.52.072A.371.371,0,0,0,37.13.04a.372.372,0,0,0-.209.331" transform="translate(-31.482 0)" fill="#ff7300"/>
      <path id="Path_45" data-name="Path 45" d="M216.36,141.509l-4.482-8.679-20.361,20.361,2.69,2.691L216.226,142a.375.375,0,0,0,.134-.493" transform="translate(-164.797 -114.298)" fill="#b2b5b8"/>
      <path id="Path_46" data-name="Path 46" d="M189.589,37.33l20.05-20.05L209.305.373a.378.378,0,0,0-.6-.3l-11.97,8.669a.886.886,0,0,1-.517.165l-6.245-.087a.378.378,0,0,0-.383.378Z" transform="translate(-163.138 -0.002)" fill="#3d464d"/>
      <path id="Path_47" data-name="Path 47" d="M169.037,286.584a.06.06,0,0,0-.043.016l-2.536,2.536,2.382,2.382a.279.279,0,0,0,.395,0l2.382-2.382L169.08,286.6a.06.06,0,0,0-.043-.016" transform="translate(-143.234 -246.6)" fill="#ff7300"/>
    </g>
  </g>
</svg>
