<svg id="Group_42" data-name="Group 42" xmlns="http://www.w3.org/2000/svg" xmlns:xlink="http://www.w3.org/1999/xlink" width="239.172" height="45" viewBox="0 0 239.172 45">
  <defs>
    <clipPath id="clip-path">
      <rect id="Rectangle_250" data-name="Rectangle 250" width="239.172" height="45" fill="none"/>
    </clipPath>
  </defs>
  <path id="Path_20" data-name="Path 20" d="M441.526,94.335h14.5v4.317h-9.455V103.4h9.121v4.074h-9.121v8.148h-5.047Z" transform="translate(-380.511 -81.299)" fill="#3d464d"/>
  <g id="Group_40" data-name="Group 40">
    <g id="Group_39" data-name="Group 39" clip-path="url(#clip-path)">
      <path id="Path_21" data-name="Path 21" d="M562.745,102.322c0-6.354,5.047-11.067,11.462-11.067s11.462,4.713,11.462,11.067-5.047,11.066-11.462,11.066-11.462-4.712-11.462-11.066m18,0a6.537,6.537,0,1,0-6.537,6.567,6.23,6.23,0,0,0,6.537-6.567" transform="translate(-484.978 -78.644)" fill="#3d464d"/>
      <path id="Path_22" data-name="Path 22" d="M732.006,104.125l-6.02-9.79h5.533l3.132,5.473,3.162-5.473h5.472l-5.989,9.79,6.932,11.492h-5.472l-4.1-6.992-4.074,6.992H725.1Z" transform="translate(-624.901 -81.299)" fill="#3d464d"/>
      <path id="Path_23" data-name="Path 23" d="M880.205,94.335h7.813c4.682,0,7.3,2.189,7.3,5.442a5.032,5.032,0,0,1-3.192,4.652,5.36,5.36,0,0,1,4.2,5.169c0,3.861-3.192,6.02-7.053,6.02h-9.06Zm7.661,8.33c2.128,0,2.584-1,2.584-2.128s-.426-2.128-2.584-2.128h-2.615v4.256Zm.973,8.634a2.285,2.285,0,1,0,0-4.56h-3.587v4.56Z" transform="translate(-758.567 -81.299)" fill="#ff7300"/>
      <path id="Path_24" data-name="Path 24" d="M1010.691,94.335h1.52l9.486,21.282h-4.8l-1.49-3.375h-7.9l-1.49,3.375h-4.8Zm2.98,13.772-2.219-5.29-2.219,5.29Z" transform="translate(-862.847 -81.299)" fill="#ff7300"/>
      <path id="Path_25" data-name="Path 25" d="M1166.2,94.335h2.159l11.31,11.735V94.335h5.047v21.282h-2.159l-11.31-11.674v11.674H1166.2Z" transform="translate(-1005.044 -81.299)" fill="#ff7300"/>
      <path id="Path_26" data-name="Path 26" d="M1326.582,94.335h2.159l11.31,11.735V94.335h5.047v21.282h-2.159l-11.309-11.674v11.674h-5.047Z" transform="translate(-1143.259 -81.299)" fill="#ff7300"/>
      <path id="Path_27" data-name="Path 27" d="M1486.96,94.335h14.228v4.317h-9.182V102.7h8.847v4.013h-8.847V111.3h9.3v4.317h-14.35Z" transform="translate(-1281.473 -81.299)" fill="#ff7300"/>
      <path id="Path_28" data-name="Path 28" d="M1611.918,94.335h7.357c4.135,0,7.175,2.25,7.175,6.324a5.856,5.856,0,0,1-3.892,5.564l5.776,9.394H1622.8l-5.108-8.634h-.729v8.634h-5.047Zm6.962,8.33c1.915,0,2.645-.7,2.645-2.007s-.73-2.007-2.645-2.007h-1.915v4.013Z" transform="translate(-1389.163 -81.299)" fill="#ff7300"/>
      <path id="Path_29" data-name="Path 29" d="M22.336,155.118l2.9-2.9L4.661,131.649l-4.591,8.89a.616.616,0,0,0,.219.8l21.971,13.85h0Z" transform="translate(0 -113.456)" fill="#ffb580"/>
      <path id="Path_30" data-name="Path 30" d="M56.867,37.8V9.352a.616.616,0,0,0-.625-.616l-6.183.086a.617.617,0,0,1-.37-.117L37.832.118a.616.616,0,0,0-.977.487l-.333,16.826-.008.015Z" transform="translate(-31.468 0)" fill="#ff7300"/>
      <path id="Path_31" data-name="Path 31" d="M193.685,155.118l-2.9-2.9,20.572-20.573,4.591,8.89a.616.616,0,0,1-.219.8l-21.972,13.851Z" transform="translate(-164.423 -113.456)" fill="#b2b5b8"/>
      <path id="Path_32" data-name="Path 32" d="M189.584,37.8V9.352a.616.616,0,0,1,.625-.616l6.183.086a.617.617,0,0,0,.37-.117L208.619.118a.616.616,0,0,1,.977.487l.333,16.826.008.015Z" transform="translate(-163.385 0)" fill="#3d464d"/>
      <path id="Path_33" data-name="Path 33" d="M171.523,287.514,168.84,290.2a.3.3,0,0,1-.427,0l-2.683-2.683,2.9-2.9Z" transform="translate(-142.827 -245.285)" fill="#ff7300"/>
    </g>
  </g>
</svg>
