<svg id="Group_48" data-name="Group 48" xmlns="http://www.w3.org/2000/svg" xmlns:xlink="http://www.w3.org/1999/xlink" width="241.224" height="45" viewBox="0 0 241.224 45">
  <defs>
    <clipPath id="clip-path">
      <rect id="Rectangle_252" data-name="Rectangle 252" width="241.224" height="45" fill="none"/>
    </clipPath>
  </defs>
  <path id="Path_48" data-name="Path 48" d="M439.781,92.647h14.641v4.359h-9.546v4.788h9.208v4.113h-9.208v8.226h-5.1Z" transform="translate(-378.423 -79.721)" fill="#fff"/>
  <g id="Group_47" data-name="Group 47">
    <g id="Group_46" data-name="Group 46" clip-path="url(#clip-path)">
      <path id="Path_49" data-name="Path 49" d="M561,100.74c0-6.415,5.1-11.173,11.572-11.173s11.572,4.758,11.572,11.173-5.1,11.173-11.572,11.173S561,107.155,561,100.74m18.171,0a6.6,6.6,0,1,0-6.6,6.63,6.29,6.29,0,0,0,6.6-6.63" transform="translate(-482.729 -77.071)" fill="#fff"/>
      <path id="Path_50" data-name="Path 50" d="M730.327,102.531l-6.078-9.883h5.586L733,98.173l3.192-5.525h5.525l-6.047,9.883,7,11.6h-5.525L733,107.074l-4.113,7.06h-5.525Z" transform="translate(-622.437 -79.722)" fill="#fff"/>
      <path id="Path_51" data-name="Path 51" d="M878.458,92.647h7.888c4.727,0,7.367,2.21,7.367,5.494a5.08,5.08,0,0,1-3.223,4.7,5.411,5.411,0,0,1,4.236,5.218c0,3.9-3.223,6.077-7.121,6.077h-9.147Zm7.735,8.41c2.149,0,2.609-1.013,2.609-2.149s-.43-2.149-2.609-2.149h-2.64v4.3Zm.982,8.717a2.307,2.307,0,1,0,0-4.6h-3.622v4.6Z" transform="translate(-755.897 -79.721)" fill="#ffb680"/>
      <path id="Path_52" data-name="Path 52" d="M1009.036,92.647h1.535l9.577,21.486h-4.85l-1.5-3.407h-7.981l-1.5,3.407h-4.85Zm3.008,13.9-2.241-5.341-2.241,5.341Z" transform="translate(-860.016 -79.721)" fill="#ffb680"/>
      <path id="Path_53" data-name="Path 53" d="M1164.459,92.647h2.179l11.418,11.848V92.647h5.1v21.486h-2.179l-11.418-11.787v11.787h-5.1Z" transform="translate(-1001.995 -79.721)" fill="#ffb680"/>
      <path id="Path_54" data-name="Path 54" d="M1324.836,92.647h2.179l11.418,11.848V92.647h5.1v21.486h-2.179l-11.418-11.787v11.787h-5.1Z" transform="translate(-1139.997 -79.721)" fill="#ffb680"/>
      <path id="Path_55" data-name="Path 55" d="M1485.214,92.647h14.365v4.359h-9.27v4.082h8.932v4.052h-8.932v4.635h9.392v4.359h-14.488Z" transform="translate(-1277.999 -79.721)" fill="#ffb680"/>
      <path id="Path_56" data-name="Path 56" d="M1610.172,92.648h7.428c4.174,0,7.244,2.271,7.244,6.384a5.912,5.912,0,0,1-3.929,5.617l5.832,9.485h-5.586L1616,105.417h-.737v8.717h-5.1Zm7.029,8.41c1.934,0,2.671-.706,2.671-2.026s-.737-2.026-2.671-2.026h-1.934v4.052Z" transform="translate(-1385.523 -79.722)" fill="#ffb680"/>
      <path id="Path_57" data-name="Path 57" d="M4.525,132.83.043,141.508A.376.376,0,0,0,.177,142L22.2,155.882l2.69-2.691Z" transform="translate(0 -114.298)" fill="#fff"/>
      <path id="Path_58" data-name="Path 58" d="M36.92.371l-.334,16.906,20.05,20.051V9.2a.375.375,0,0,0-.113-.269.387.387,0,0,0-.274-.109l-6.239.087a.9.9,0,0,1-.52-.165L37.52.072A.371.371,0,0,0,37.13.04a.372.372,0,0,0-.209.331" transform="translate(-31.482 0)" fill="#ffb680"/>
      <path id="Path_59" data-name="Path 59" d="M216.36,141.509l-4.482-8.679-20.361,20.361,2.69,2.691L216.226,142a.375.375,0,0,0,.134-.493" transform="translate(-164.797 -114.298)" fill="#fff"/>
      <path id="Path_60" data-name="Path 60" d="M189.589,37.33l20.05-20.05L209.305.373a.378.378,0,0,0-.6-.3l-11.97,8.669a.886.886,0,0,1-.517.165l-6.245-.087a.378.378,0,0,0-.383.378Z" transform="translate(-163.138 -0.002)" fill="#ffb680"/>
      <path id="Path_61" data-name="Path 61" d="M169.037,286.584a.06.06,0,0,0-.043.016l-2.536,2.536,2.382,2.382a.279.279,0,0,0,.395,0l2.382-2.382L169.08,286.6a.06.06,0,0,0-.043-.016" transform="translate(-143.234 -246.6)" fill="#ffb680"/>
    </g>
  </g>
</svg>
