<svg xmlns="http://www.w3.org/2000/svg" width="58.26" height="63.67" viewBox="0 0 58.26 63.67">
  <path id="Tracé_19" data-name="Tracé 19" d="M29.289,49.585c.312-.027.45,0,.54-.053,7.248-4.355,12.112-10.506,14-18.826a13.7,13.7,0,0,0-.141-6.416,10.486,10.486,0,0,0-9.693-8.033,11.362,11.362,0,0,0-6.956,1.455c-.169,1.142-.264,2.278-.516,3.377a5.925,5.925,0,0,1-2.912,4.045c-1.2.671-2.355.691-3.01.021a2.3,2.3,0,0,1-.318-2.831,23.7,23.7,0,0,1,2.493-3.549,18.749,18.749,0,0,1,2.078-1.906c-.669-4.452-4.885-6.366-9.96-4.5-.167.624-.3,1.3-.529,1.95a7.433,7.433,0,0,1-4.635,4.954,2.371,2.371,0,0,1-2.672-.382A2.385,2.385,0,0,1,7.1,16.046,12.148,12.148,0,0,1,11.33,12.02c.585-.368,1.194-.7,1.766-1.029C12.32,4.076,6.11-.815,0,1.946c.058-.5-.014-.94.17-1.18a1.691,1.691,0,0,1,.981-.5c3.34-.625,6.461-.24,9.045,2.2A15.87,15.87,0,0,1,14.3,9.011c.121.357.251.712.386,1.064.019.052.086.086.223.213.343-.033.778-.053,1.206-.121,5.286-.831,8.057.6,10.523,5.531.494-.16,1.013-.321,1.528-.495a14.148,14.148,0,0,1,9.153-.092,12.411,12.411,0,0,1,8.6,11.419A19.981,19.981,0,0,1,44.539,35.1,28.577,28.577,0,0,1,31.274,50.46q-.5.271-1,.558c-.045.026-.062.1-.217.365a13.768,13.768,0,0,0,3.871.137c1.241-.052,2.48-.154,3.824-.242a1.759,1.759,0,0,1-1.336,1.66,9.129,9.129,0,0,1-2.388.593c-2.152.079-4.315.121-6.462-.014-1.709-.108-2.178-1.029-1.41-2.413q2.445-4.407,4.946-8.781a14.824,14.824,0,0,1,1.053-1.407,1.639,1.639,0,0,1,.145,2.1c-.968,2.135-1.955,4.261-3.017,6.571M8.271,17.7c2.719-.366,4.43-2.108,4.53-4.557-1.829,1.213-3.575,2.292-4.53,4.557m13.35,6.138A3.811,3.811,0,0,0,24.806,19.3c-1.5,1.243-2.82,2.448-3.185,4.536" transform="matrix(0.966, 0.259, -0.259, 0.966, 13.874, -0.001)" fill="#ff7300"/>
</svg>
